<svg width="40" height="44" viewBox="0 0 40 44" fill="none" xmlns="http://www.w3.org/2000/svg">
<path d="M2 10H6H38" stroke="#E73F5D" stroke-width="4" stroke-linecap="round" stroke-linejoin="round"/>
<path d="M11.9995 10.0002V6.00024C11.9995 4.93938 12.4209 3.92196 13.1711 3.17182C13.9212 2.42167 14.9386 2.00024 15.9995 2.00024H23.9995C25.0604 2.00024 26.0778 2.42167 26.8279 3.17182C27.5781 3.92196 27.9995 4.93938 27.9995 6.00024V10.0002M33.9995 10.0002V38.0002C33.9995 39.0611 33.5781 40.0785 32.8279 40.8287C32.0778 41.5788 31.0604 42.0002 29.9995 42.0002H9.99951C8.93865 42.0002 7.92123 41.5788 7.17108 40.8287C6.42094 40.0785 5.99951 39.0611 5.99951 38.0002V10.0002H33.9995Z" stroke="#E73F5D" stroke-width="4" stroke-linecap="round" stroke-linejoin="round"/>
</svg>
