<svg width="48" height="48" viewBox="0 0 48 48" fill="none" xmlns="http://www.w3.org/2000/svg">
<path d="M6 12H10H42" stroke="#A43B4E" stroke-width="4" stroke-linecap="round" stroke-linejoin="round"/>
<path d="M15.9995 12V8C15.9995 6.93913 16.4209 5.92172 17.1711 5.17157C17.9212 4.42143 18.9386 4 19.9995 4H27.9995C29.0604 4 30.0778 4.42143 30.8279 5.17157C31.5781 5.92172 31.9995 6.93913 31.9995 8V12M37.9995 12V40C37.9995 41.0609 37.5781 42.0783 36.8279 42.8284C36.0778 43.5786 35.0604 44 33.9995 44H13.9995C12.9386 44 11.9212 43.5786 11.1711 42.8284C10.4209 42.0783 9.99951 41.0609 9.99951 40V12H37.9995Z" stroke="#A43B4E" stroke-width="4" stroke-linecap="round" stroke-linejoin="round"/>
</svg>
